<svg xmlns="http://www.w3.org/2000/svg" xmlns:xlink="http://www.w3.org/1999/xlink" viewBox="0 0 5000 4060">
  <defs>
    <style>#Layer_0{fill: #1da1f2;}</style>
  </defs>
  <g id="Layer_0">
    <path d="M1210 4048 c-350 -30 -780 -175 -1124 -378 -56 -33 -86 -57 -86 -68 0 -16 7 -17 83 -9 114 12 349 1 493 -22 295 -49 620 -180 843 -341 l54 -38 -49 -7 c-367 -49 -660 -256 -821 -582 -30 -61 -53 -120 -51 -130 3 -16 12 -17 73 -13 97 7 199 5 270 -4 l60 -9 -65 -22 c-341 -117 -609 -419 -681 -769 -18 -88 -26 -226 -13 -239 4 -3 32 7 63 22 68 35 198 77 266 86 28 4 58 9 68 12 10 2 -22 -34 -72 -82 -240 -232 -353 -532 -321 -852 15 -149 79 -347 133 -418 16 -20 17 -19 49 20 377 455 913 795 1491 945 160 41 346 74 485 86 l82 7 -7 -59 c-5 -33 -7 -117 -6 -189 2 -163 31 -286 103 -430 141 -285 422 -504 708 -550 112 -19 333 -19 442 0 180 30 335 108 477 239 l58 54 95 -24 c143 -36 286 -89 427 -160 70 -35 131 -60 135 -56 19 19 -74 209 -151 312 -50 66 -161 178 -216 217 l-30 22 73 -14 c111 -21 257 -63 353 -101 99 -39 99 -39 99 -19 0 57 -237 326 -412 468 l-88 71 6 51 c4 28 1 130 -5 226 -30 440 -131 806 -333 1202 -380 745 -1036 1277 -1823 1477 -243 62 -430 81 -786 78 -134 0 -291 -5 -349 -10z"/>
  </g>
</svg>